<svg width="783" height="800" viewBox="0 0 783 800" fill="none" xmlns="http://www.w3.org/2000/svg">
<rect width="783" height="800" rx="80" fill="white"/>
<g filter="url(#filter0_d_54_3375)">
<path d="M339.399 332.27C341.619 332.27 343.099 332.887 343.839 334.12C344.825 335.107 345.319 336.34 345.319 337.82C345.319 339.053 344.702 340.287 343.469 341.52C342.482 342.507 341.125 343 339.399 343H292.409C290.435 343 288.955 342.507 287.969 341.52C286.982 340.287 286.489 339.053 286.489 337.82C286.489 336.34 286.859 335.107 287.599 334.12C288.585 332.887 290.189 332.27 292.409 332.27C293.889 332.27 294.999 331.53 295.739 330.05C296.725 328.57 297.465 326.72 297.959 324.5C298.699 322.033 299.069 319.32 299.069 316.36C299.315 313.4 299.439 310.563 299.439 307.85V206.1C299.439 203.14 299.315 200.303 299.069 197.59C298.822 194.877 298.205 192.533 297.219 190.56C296.232 188.34 294.505 186.613 292.039 185.38C289.819 183.9 286.735 183.16 282.789 183.16C278.349 183.16 274.279 183.9 270.579 185.38C267.125 186.86 264.042 188.71 261.329 190.93C258.615 192.903 256.272 195.123 254.299 197.59C252.325 200.057 250.845 202.277 249.859 204.25V307.85C249.859 310.563 249.859 313.4 249.859 316.36C250.105 319.32 250.475 322.033 250.969 324.5C251.462 326.72 252.202 328.57 253.189 330.05C254.175 331.53 255.409 332.27 256.889 332.27C258.862 332.27 260.342 332.887 261.329 334.12C262.315 335.107 262.809 336.34 262.809 337.82C262.809 339.053 262.192 340.287 260.959 341.52C259.972 342.507 258.615 343 256.889 343H209.529C207.555 343 206.075 342.507 205.089 341.52C204.102 340.287 203.609 339.053 203.609 337.82C203.609 336.34 204.102 335.107 205.089 334.12C206.075 332.887 207.555 332.27 209.529 332.27C211.009 332.27 212.242 331.53 213.229 330.05C214.215 328.57 214.955 326.72 215.449 324.5C215.942 322.033 216.312 319.32 216.559 316.36C216.805 313.4 216.929 310.563 216.929 307.85V206.1C216.929 203.14 216.805 200.303 216.559 197.59C216.312 194.877 215.695 192.533 214.709 190.56C213.722 188.34 211.995 186.613 209.529 185.38C207.309 183.9 204.225 183.16 200.279 183.16C195.592 183.16 191.399 183.9 187.699 185.38C184.245 186.86 181.162 188.71 178.449 190.93C175.735 193.15 173.392 195.493 171.419 197.96C169.692 200.427 168.212 202.647 166.979 204.62V307.85C166.979 310.563 166.979 313.4 166.979 316.36C167.225 319.32 167.595 322.033 168.089 324.5C168.829 326.72 169.692 328.57 170.679 330.05C171.665 331.53 172.899 332.27 174.379 332.27C176.352 332.27 177.832 332.887 178.819 334.12C179.805 335.107 180.299 336.34 180.299 337.82C180.299 339.053 179.682 340.287 178.449 341.52C177.462 342.507 176.105 343 174.379 343H124.059C122.085 343 120.605 342.507 119.619 341.52C118.632 340.287 118.139 339.053 118.139 337.82C118.139 336.34 118.632 335.107 119.619 334.12C120.605 332.887 122.085 332.27 124.059 332.27C125.539 332.27 126.649 331.53 127.389 330.05C128.375 328.57 129.115 326.72 129.609 324.5C130.349 322.033 130.719 319.32 130.719 316.36C130.965 313.4 131.089 310.563 131.089 307.85V206.84C131.089 205.36 130.719 204.003 129.979 202.77C129.239 201.537 128.375 200.427 127.389 199.44C126.402 198.453 125.292 197.59 124.059 196.85C121.839 195.863 120.235 194.753 119.249 193.52C118.509 192.287 118.262 191.053 118.509 189.82C119.002 188.587 120.729 187.23 123.689 185.75C127.389 184.023 130.965 182.42 134.419 180.94C138.119 179.213 141.449 177.857 144.409 176.87C147.615 175.637 150.329 174.65 152.549 173.91C154.769 173.17 156.249 172.677 156.989 172.43C161.182 170.95 163.895 170.21 165.129 170.21C166.362 170.21 166.979 173.047 166.979 178.72V195C168.459 192.78 170.555 190.19 173.269 187.23C176.229 184.023 179.682 180.94 183.629 177.98C187.822 175.02 192.632 172.553 198.059 170.58C203.732 168.607 210.022 167.62 216.929 167.62C228.769 167.62 236.909 170.457 241.349 176.13C245.789 181.803 248.379 188.34 249.119 195.74C250.599 193.52 252.695 190.807 255.409 187.6C258.122 184.393 261.575 181.31 265.769 178.35C269.962 175.39 274.772 172.923 280.199 170.95C285.872 168.73 292.285 167.62 299.439 167.62C306.839 167.62 312.635 168.853 316.829 171.32C321.269 173.54 324.599 176.5 326.819 180.2C329.285 183.9 330.765 188.093 331.259 192.78C331.999 197.22 332.369 201.66 332.369 206.1V307.85C332.369 310.563 332.369 313.4 332.369 316.36C332.615 319.32 332.985 322.033 333.479 324.5C334.219 326.72 334.959 328.57 335.699 330.05C336.685 331.53 337.919 332.27 339.399 332.27ZM499.889 332.27C502.109 332.27 503.589 332.887 504.329 334.12C505.316 335.107 505.809 336.34 505.809 337.82C505.809 339.053 505.192 340.287 503.959 341.52C502.972 342.507 501.616 343 499.889 343H463.259C459.559 343 457.462 341.15 456.969 337.45V325.24C455.489 327.213 453.516 329.433 451.049 331.9C448.829 334.12 445.992 336.34 442.539 338.56C439.086 340.533 435.016 342.137 430.329 343.37C425.642 344.85 420.339 345.59 414.419 345.59C410.472 345.59 405.662 344.603 399.989 342.63C394.316 340.657 388.889 336.587 383.709 330.42C378.529 324.007 374.089 315.127 370.389 303.78C366.689 292.433 364.839 277.263 364.839 258.27C364.839 239.523 366.689 224.353 370.389 212.76C374.089 201.167 378.529 192.163 383.709 185.75C388.889 179.337 394.316 175.02 399.989 172.8C405.662 170.58 410.472 169.47 414.419 169.47C420.586 169.47 426.012 170.21 430.699 171.69C435.386 173.17 439.456 175.02 442.909 177.24C446.362 179.46 449.199 181.803 451.419 184.27C453.886 186.737 455.859 188.957 457.339 190.93V114.34C457.339 112.86 456.969 111.503 456.229 110.27C455.489 109.037 454.626 107.927 453.639 106.94C452.652 105.953 451.419 105.09 449.939 104.35C447.966 103.363 446.486 102.253 445.499 101.02C444.759 99.7867 444.512 98.5533 444.759 97.32C445.006 96.0867 446.732 94.73 449.939 93.25C457.092 89.7967 463.876 86.8367 470.289 84.37C476.949 81.9033 481.142 80.4233 482.869 79.93C485.089 79.19 486.816 78.5733 488.049 78.08C489.529 77.5867 490.639 77.4633 491.379 77.71C492.119 77.9567 492.612 78.82 492.859 80.3C493.106 81.5333 493.229 83.63 493.229 86.59V114.34C493.229 146.16 493.106 172.923 492.859 194.63C492.859 216.337 492.859 234.343 492.859 248.65C492.859 262.71 492.859 273.563 492.859 281.21C492.859 288.857 492.859 294.53 492.859 298.23C492.859 301.683 492.859 303.78 492.859 304.52C492.859 305.26 492.859 305.753 492.859 306C492.859 308.96 492.859 312.043 492.859 315.25C493.106 318.21 493.476 321.047 493.969 323.76C494.462 326.227 495.202 328.323 496.189 330.05C497.176 331.53 498.409 332.27 499.889 332.27ZM425.149 338.19C429.589 338.19 433.536 337.45 436.989 335.97C440.442 334.49 443.402 332.64 445.869 330.42C448.582 327.953 450.802 325.363 452.529 322.65C454.256 319.69 455.736 316.977 456.969 314.51L457.339 201.66C456.106 198.947 454.502 196.233 452.529 193.52C450.802 190.56 448.582 187.847 445.869 185.38C443.402 182.913 440.442 180.94 436.989 179.46C433.536 177.98 429.589 177.24 425.149 177.24C419.229 177.24 414.666 179.707 411.459 184.64C408.252 189.327 405.786 195.617 404.059 203.51C402.579 211.157 401.592 219.79 401.099 229.41C400.852 239.03 400.729 248.65 400.729 258.27C400.729 267.89 400.852 277.51 401.099 287.13C401.592 296.503 402.579 305.013 404.059 312.66C405.786 320.307 408.252 326.473 411.459 331.16C414.666 335.847 419.229 338.19 425.149 338.19ZM657.876 170.95C661.083 170.95 662.686 172.677 662.686 176.13C662.686 177.363 662.193 178.597 661.206 179.83C660.22 180.817 659.11 181.31 657.876 181.31C654.423 181.31 651.586 181.927 649.366 183.16C647.393 184.393 645.79 185.627 644.556 186.86C643.076 188.34 641.966 190.067 641.226 192.04C636.046 209.8 630.496 227.807 624.576 246.06C622.11 253.953 619.396 262.217 616.436 270.85C613.723 279.483 610.763 288.24 607.556 297.12C604.35 306 601.02 315.003 597.566 324.13C594.36 333.01 591.153 341.52 587.946 349.66C584 359.773 580.176 369.147 576.476 377.78C573.023 386.66 569.323 394.307 565.376 400.72C561.43 407.133 556.99 412.19 552.056 415.89C547.37 419.837 541.82 421.81 535.406 421.81C528.253 421.81 522.456 419.343 518.016 414.41C513.576 409.723 511.356 404.05 511.356 397.39C511.356 391.223 513.206 385.55 516.906 380.37C520.606 375.19 525.663 372.6 532.076 372.6C536.516 372.6 539.97 373.833 542.436 376.3C544.903 379.013 546.26 381.973 546.506 385.18C547 388.387 546.383 391.593 544.656 394.8C543.176 398.007 540.463 400.103 536.516 401.09C533.803 401.83 531.706 403.063 530.226 404.79C528.993 406.763 528.253 408.613 528.006 410.34C528.006 412.313 528.623 413.917 529.856 415.15C531.09 416.63 532.94 417.37 535.406 417.37C539.846 417.37 543.793 415.643 547.246 412.19C550.946 408.737 554.523 403.927 557.976 397.76C561.43 391.593 564.883 384.44 568.336 376.3C571.79 368.16 575.366 359.28 579.066 349.66C579.56 348.427 579.93 347.193 580.176 345.96C580.67 344.727 581.163 343.493 581.656 342.26L526.896 185.75C526.65 185.01 526.156 184.27 525.416 183.53C523.936 182.05 521.963 181.31 519.496 181.31C518.016 181.31 516.783 180.817 515.796 179.83C514.81 178.597 514.316 177.363 514.316 176.13C514.316 172.677 516.043 170.95 519.496 170.95H568.336C571.543 170.95 573.146 172.677 573.146 176.13C573.146 177.363 572.653 178.597 571.666 179.83C570.68 180.817 569.57 181.31 568.336 181.31C566.363 181.31 565.13 181.68 564.636 182.42C564.143 182.913 563.773 183.53 563.526 184.27C563.28 185.257 563.403 186.243 563.896 187.23L600.526 291.94C604.966 279.36 609.16 267.15 613.106 255.31C617.053 243.47 620.506 232.863 623.466 223.49C626.92 212.39 630.126 201.907 633.086 192.04C633.58 190.067 633.21 188.34 631.976 186.86C630.743 185.627 628.646 184.393 625.686 183.16C622.973 181.927 618.533 181.31 612.366 181.31C611.133 181.31 610.023 180.817 609.036 179.83C608.05 178.597 607.556 177.363 607.556 176.13C607.556 172.677 609.16 170.95 612.366 170.95H657.876ZM463.18 540.95C464.66 540.95 465.893 541.567 466.88 542.8C468.113 543.787 468.73 545.02 468.73 546.5C468.73 547.98 468.113 549.213 466.88 550.2C465.893 551.187 464.66 551.68 463.18 551.68H432.84V676C432.84 681.427 433.58 685.867 435.06 689.32C436.54 692.527 438.266 695.117 440.24 697.09C442.46 699.063 444.68 700.42 446.9 701.16C449.366 701.9 451.463 702.27 453.19 702.27C455.163 702.27 456.643 702.887 457.63 704.12C458.616 705.107 459.11 706.34 459.11 707.82C459.11 709.053 458.493 710.287 457.26 711.52C456.273 712.507 454.916 713 453.19 713H432.84C422.726 713 414.216 709.547 407.31 702.64C400.403 695.733 396.95 687.223 396.95 677.11V551.68H374.38C372.9 551.68 371.543 551.187 370.31 550.2C369.323 549.213 368.83 547.98 368.83 546.5C368.83 545.02 369.323 543.787 370.31 542.8C371.543 541.567 372.9 540.95 374.38 540.95C377.34 540.95 381.41 539.717 386.59 537.25C392.016 534.783 397.32 531.577 402.5 527.63C407.926 523.437 412.49 518.627 416.19 513.2C420.136 507.527 422.11 501.73 422.11 495.81C422.11 494.33 422.603 493.097 423.59 492.11C424.576 490.877 425.81 490.26 427.29 490.26C428.77 490.26 430.003 490.877 430.99 492.11C432.223 493.097 432.84 494.33 432.84 495.81V527.63C432.84 531.083 433.21 533.673 433.95 535.4C434.69 537.127 436.17 538.483 438.39 539.47C440.61 540.21 443.693 540.703 447.64 540.95C451.586 540.95 456.766 540.95 463.18 540.95ZM576.862 538.73C585.002 538.73 591.785 541.69 597.212 547.61C602.885 553.53 605.722 560.313 605.722 567.96C605.722 574.867 603.872 580.54 600.172 584.98C596.472 589.173 592.155 591.27 587.222 591.27C584.262 591.27 581.425 590.653 578.712 589.42C576.245 588.187 574.272 586.583 572.792 584.61C571.312 582.637 570.449 580.293 570.202 577.58C569.955 574.62 570.695 571.413 572.422 567.96C575.629 561.793 576.739 556.983 575.752 553.53C575.012 550.077 572.669 548.35 568.722 548.35C565.022 548.103 559.965 549.83 553.552 553.53C547.385 556.983 540.355 562.533 532.462 570.18V677.85C532.709 682.537 533.202 686.607 533.942 690.06C534.435 693.267 535.052 696.103 535.792 698.57C536.779 701.037 538.135 702.27 539.862 702.27C541.835 702.27 543.315 702.887 544.302 704.12C545.289 705.107 545.782 706.34 545.782 707.82C545.782 709.053 545.165 710.287 543.932 711.52C542.945 712.507 541.589 713 539.862 713H489.542C487.569 713 486.089 712.507 485.102 711.52C484.115 710.287 483.622 709.053 483.622 707.82C483.622 706.34 484.115 705.107 485.102 704.12C486.089 702.887 487.569 702.27 489.542 702.27C491.022 702.27 492.132 701.037 492.872 698.57C493.859 696.103 494.599 693.267 495.092 690.06C495.832 686.607 496.325 682.537 496.572 677.85V572.77C496.572 571.29 496.202 570.057 495.462 569.07C494.722 567.837 493.859 566.727 492.872 565.74C491.885 564.753 490.775 563.767 489.542 562.78C487.322 561.793 485.719 560.683 484.732 559.45C483.992 558.217 483.745 556.983 483.992 555.75C484.485 554.517 486.212 553.16 489.172 551.68L511.372 538.36C514.332 536.387 517.539 535.893 520.992 536.88C524.445 537.62 527.159 539.47 529.132 542.43C530.365 544.403 531.229 546.87 531.722 549.83C532.215 552.543 532.462 556.86 532.462 562.78C533.695 561.547 535.669 559.573 538.382 556.86C541.342 554.147 544.795 551.433 548.742 548.72C552.689 546.007 557.005 543.663 561.692 541.69C566.625 539.717 571.682 538.73 576.862 538.73ZM678.525 702.27C680.499 702.27 681.979 702.887 682.965 704.12C683.952 705.107 684.445 706.34 684.445 707.82C684.445 709.053 683.829 710.287 682.595 711.52C681.609 712.507 680.252 713 678.525 713H628.205C626.232 713 624.752 712.507 623.765 711.52C622.779 710.287 622.285 709.053 622.285 707.82C622.285 706.34 622.779 705.107 623.765 704.12C624.752 702.887 626.232 702.27 628.205 702.27C630.179 702.27 631.535 700.42 632.275 696.72C633.262 692.773 634.002 688.333 634.495 683.4C634.989 677.727 635.112 671.313 634.865 664.16V483.6C634.865 482.12 634.495 480.887 633.755 479.9C633.015 478.667 632.152 477.557 631.165 476.57C630.179 475.583 629.069 474.597 627.835 473.61C625.615 472.623 624.012 471.513 623.025 470.28C622.285 469.047 622.039 467.813 622.285 466.58C622.779 465.347 624.505 463.99 627.465 462.51C634.619 459.057 641.402 456.22 647.815 454C654.475 451.533 658.792 450.053 660.765 449.56C662.985 448.82 664.712 448.203 665.945 447.71C667.179 447.217 668.165 447.093 668.905 447.34C669.645 447.587 670.139 448.327 670.385 449.56C670.632 450.793 670.755 452.89 670.755 455.85V483.6L671.125 668.97C671.125 671.683 671.125 675.013 671.125 678.96C671.125 682.66 671.249 686.237 671.495 689.69C671.989 693.143 672.729 696.103 673.715 698.57C674.949 701.037 676.552 702.27 678.525 702.27Z" fill="black"/>
</g>
<path d="M225.161 621.926C279.642 717.136 134.432 717.136 188.839 621.926C105.845 717.136 82.6956 693.499 175.913 608.721C82.6956 664.374 82.6956 516.043 175.913 571.62C82.6956 486.842 105.845 463.195 188.839 558.416C134.357 463.195 279.567 463.195 225.161 558.416C308.154 463.195 331.304 486.842 238.087 571.62C331.304 515.967 331.304 664.298 238.087 608.721C331.304 693.499 308.123 717.136 225.161 621.926Z" fill="#040421"/>
<path d="M216.08 606.046C243.321 653.651 170.716 653.651 197.92 606.046C156.423 653.651 144.848 641.833 191.457 599.444C144.848 627.271 144.848 553.105 191.457 580.893C144.848 538.504 156.423 526.681 197.92 574.291C170.679 526.681 243.284 526.681 216.08 574.291C257.577 526.681 269.152 538.504 222.543 580.893C269.152 553.067 269.152 627.232 222.543 599.444C269.152 641.833 257.561 653.651 216.08 606.046Z" fill="#FFDB27"/>
<defs>
<filter id="filter0_d_54_3375" x="114.139" y="77.34" width="574.307" height="643.66" filterUnits="userSpaceOnUse" color-interpolation-filters="sRGB">
<feFlood flood-opacity="0" result="BackgroundImageFix"/>
<feColorMatrix in="SourceAlpha" type="matrix" values="0 0 0 0 0 0 0 0 0 0 0 0 0 0 0 0 0 0 127 0" result="hardAlpha"/>
<feOffset dy="4"/>
<feGaussianBlur stdDeviation="2"/>
<feComposite in2="hardAlpha" operator="out"/>
<feColorMatrix type="matrix" values="0 0 0 0 0 0 0 0 0 0 0 0 0 0 0 0 0 0 0.25 0"/>
<feBlend mode="normal" in2="BackgroundImageFix" result="effect1_dropShadow_54_3375"/>
<feBlend mode="normal" in="SourceGraphic" in2="effect1_dropShadow_54_3375" result="shape"/>
</filter>
</defs>
</svg>
