<svg width="1004" height="1004" viewBox="0 0 1004 1004" fill="none" xmlns="http://www.w3.org/2000/svg">
<rect x="152" y="152" width="700" height="700" rx="350" fill="black"/>
<g filter="url(#filter0_d_54_3377)">
<path fill-rule="evenodd" clip-rule="evenodd" d="M339.357 177H174.357V339.5C174.357 422.251 237.164 490.556 318.391 500.701C236.025 509.806 172 578.628 172 662.179L172 824.679H337C421.025 824.679 490.38 762.822 500.681 682.827C509.927 763.947 579.807 827 664.644 827H829.644V664.5C829.644 581.749 766.835 513.443 685.609 503.3C767.977 494.195 832 425.371 832 341.821V179.321L667 179.321C582.975 179.321 513.619 241.176 503.32 321.173C494.075 240.055 424.193 177 339.357 177Z" fill="#FFDB27"/>
</g>
<path d="M503.311 527.65C504.211 527.65 504.811 527.9 505.111 528.4C505.511 528.8 505.711 529.3 505.711 529.9C505.711 530.4 505.461 530.9 504.961 531.4C504.561 531.8 504.011 532 503.311 532H483.061C482.261 532 481.661 531.8 481.261 531.4C480.861 530.9 480.661 530.4 480.661 529.9C480.661 529.3 480.811 528.8 481.111 528.4C481.511 527.9 482.161 527.65 483.061 527.65C483.861 527.65 484.461 527.2 484.861 526.3C485.261 525.4 485.511 524.3 485.611 523C485.811 521.6 485.911 520.15 485.911 518.65C485.911 517.15 485.911 515.8 485.911 514.6V447.25L459.361 530.35C459.261 530.85 459.061 531.3 458.761 531.7C458.261 532.6 457.611 533.05 456.811 533.05C455.711 533.05 454.911 532.6 454.411 531.7C454.111 531.3 453.911 530.8 453.811 530.2C453.511 529.3 452.911 527.45 452.011 524.65C451.211 521.85 450.161 518.45 448.861 514.45C447.561 510.35 446.111 505.9 444.511 501.1C443.011 496.2 441.461 491.3 439.861 486.4C438.261 481.4 436.711 476.55 435.211 471.85C433.811 467.15 432.511 463 431.311 459.4C430.111 455.8 429.161 452.9 428.461 450.7C427.761 448.5 427.411 447.35 427.411 447.25V520.9C427.411 521.7 427.511 522.55 427.711 523.45C427.911 524.25 428.261 525 428.761 525.7C429.361 526.3 430.161 526.85 431.161 527.35C432.161 527.75 433.461 527.95 435.061 527.95C435.561 527.95 436.011 528.15 436.411 528.55C436.911 528.95 437.161 529.45 437.161 530.05C437.161 530.65 436.911 531.15 436.411 531.55C436.011 531.85 435.561 532 435.061 532H416.911C415.511 532 414.811 531.3 414.811 529.9C414.811 529.4 415.011 528.95 415.411 528.55C415.811 528.05 416.311 527.8 416.911 527.8C420.011 527.8 422.011 527.05 422.911 525.55C423.911 523.95 424.411 522.35 424.411 520.75V438.55C424.211 437.65 423.811 436.8 423.211 436C422.711 435.4 421.961 434.85 420.961 434.35C420.061 433.75 418.761 433.45 417.061 433.45C415.661 433.45 414.961 432.75 414.961 431.35C414.961 429.95 415.661 429.25 417.061 429.25H435.061C436.261 429.25 437.211 429.5 437.911 430C438.711 430.4 439.361 430.85 439.861 431.35C440.361 431.95 440.761 432.65 441.061 433.45L463.111 505.6L485.311 434.2C485.511 433.3 485.861 432.5 486.361 431.8C486.761 431.2 487.311 430.65 488.011 430.15C488.711 429.55 489.611 429.25 490.711 429.25H503.311C504.711 429.25 505.411 429.95 505.411 431.35C505.411 432.75 504.711 433.45 503.311 433.45C502.511 433.45 501.911 433.75 501.511 434.35C501.211 434.95 500.961 435.75 500.761 436.75C500.661 437.65 500.561 438.65 500.461 439.75C500.461 440.85 500.461 441.95 500.461 443.05V514.6C500.461 515.8 500.461 517.15 500.461 518.65C500.461 520.15 500.561 521.6 500.761 523C500.961 524.3 501.211 525.4 501.511 526.3C501.911 527.2 502.511 527.65 503.311 527.65ZM588.51 429.4C589.61 429.4 590.31 429.7 590.61 430.3C591.01 430.8 591.21 431.5 591.21 432.4V449.35C591.21 450.75 590.51 451.45 589.11 451.45C588.61 451.45 588.11 451.25 587.61 450.85C587.21 450.45 587.01 449.95 587.01 449.35C587.01 447.55 586.76 445.65 586.26 443.65C585.86 441.65 584.76 439.8 582.96 438.1C581.26 436.3 578.61 434.8 575.01 433.6C571.51 432.3 566.61 431.55 560.31 431.35V514.6C560.31 515.7 560.31 517 560.31 518.5C560.31 520 560.41 521.45 560.61 522.85C560.81 524.15 561.11 525.3 561.51 526.3C561.91 527.2 562.51 527.65 563.31 527.65C564.11 527.65 564.71 527.9 565.11 528.4C565.51 528.8 565.71 529.3 565.71 529.9C565.71 530.4 565.46 530.9 564.96 531.4C564.56 531.8 564.01 532 563.31 532H542.91C542.11 532 541.51 531.8 541.11 531.4C540.71 530.9 540.51 530.4 540.51 529.9C540.51 529.3 540.71 528.8 541.11 528.4C541.51 527.9 542.11 527.65 542.91 527.65C543.71 527.65 544.31 527.2 544.71 526.3C545.11 525.3 545.36 524.15 545.46 522.85C545.66 521.45 545.76 520 545.76 518.5C545.76 517 545.76 515.7 545.76 514.6V431.2C539.86 431.3 535.16 431.7 531.66 432.4C528.16 433.1 525.46 434.15 523.56 435.55C521.76 436.95 520.56 438.8 519.96 441.1C519.36 443.3 519.06 446.05 519.06 449.35C519.06 450.75 518.36 451.45 516.96 451.45C515.56 451.45 514.86 450.75 514.86 449.35V432.4C514.86 431.5 515.01 430.8 515.31 430.3C515.71 429.7 516.46 429.4 517.56 429.4H588.51Z" fill="black"/>
<defs>
<filter id="filter0_d_54_3377" x="168" y="177" width="668" height="658" filterUnits="userSpaceOnUse" color-interpolation-filters="sRGB">
<feFlood flood-opacity="0" result="BackgroundImageFix"/>
<feColorMatrix in="SourceAlpha" type="matrix" values="0 0 0 0 0 0 0 0 0 0 0 0 0 0 0 0 0 0 127 0" result="hardAlpha"/>
<feOffset dy="4"/>
<feGaussianBlur stdDeviation="2"/>
<feComposite in2="hardAlpha" operator="out"/>
<feColorMatrix type="matrix" values="0 0 0 0 0.0156863 0 0 0 0 0.0156863 0 0 0 0 0.129412 0 0 0 0.25 0"/>
<feBlend mode="normal" in2="BackgroundImageFix" result="effect1_dropShadow_54_3377"/>
<feBlend mode="normal" in="SourceGraphic" in2="effect1_dropShadow_54_3377" result="shape"/>
</filter>
</defs>
</svg>
