<svg width="783" height="800" viewBox="0 0 783 800" fill="none" xmlns="http://www.w3.org/2000/svg">
<rect width="783" height="800" rx="80" fill="#FFDB27"/>
<path d="M391 47L393.918 230.455L459.404 59.0615L399.4 232.451L519.558 93.7912L403.87 236.201L564.206 147L406.786 241.254L587.962 212.27L407.8 247L587.962 281.73L406.786 252.746L564.206 347L403.87 257.798L519.558 400.208L399.4 261.55L459.404 434.938L393.918 263.544L391 447L388.082 263.544L322.596 434.938L382.6 261.55L262.442 400.208L378.13 257.798L217.795 347L375.213 252.746L194.038 281.73L374.2 247L194.038 212.27L375.213 241.254L217.795 147L378.13 236.201L262.442 93.7912L382.6 232.451L322.596 59.0615L388.082 230.455L391 47Z" fill="black"/>
<path d="M93.3125 697V654.6H154.113V289H93.3125V246.6H246.113L393.313 562.6L533.313 246.6H688.513V289H627.713V654.6H688.513V697H506.913V654.6H565.313V300.2L395.713 673.8H374.913L202.913 300.2V654.6H261.312V697H93.3125Z" fill="black"/>
</svg>
