<svg width="500" height="500" viewBox="0 0 500 500" fill="none" xmlns="http://www.w3.org/2000/svg">
<path d="M86.4358 385.956C87.5683 370.128 89.9583 344.134 100.433 331.333C102.506 333.384 105.224 333.039 107.168 334.622C112.378 338.866 117.239 343.932 122.271 348.425C125.295 351.125 127.967 355.36 126.216 359.323C123.406 365.684 122.904 370.012 122.423 376.732C121.942 383.45 123.905 390.518 124.218 397.279C124.491 403.2 123.763 408.912 123.705 414.828C123.648 420.589 124.639 426.221 122.22 431.349C120.65 434.679 116.221 438.422 113.08 440.429C106.184 444.836 99.6551 450.304 93.5036 455.699C89.2838 459.4 86.993 463.079 81.058 464.258C78.1921 464.827 55.1318 470.941 60.619 465.266C63.1685 462.629 64.362 459.16 64.4534 455.495C64.5981 449.697 64.2909 444.982 66.8621 439.576C71.0209 430.831 79.0356 423.213 84.7057 415.329C91.6134 405.723 85.6684 396.682 86.4358 385.956Z" fill="#2E3120"/>
<path d="M432.801 384.003C440.195 375.497 452.764 361.679 466.465 357.5C467.301 359.23 469.638 359.805 470.56 361.237C473.031 365.076 474.884 369.274 477.11 373.201C478.448 375.56 478.873 378.677 475.837 380.392C470.962 383.144 468.785 385.416 465.646 389.027C462.508 392.637 461.201 397.133 458.686 400.991C456.484 404.369 453.558 407.349 451.089 410.631C448.685 413.827 447.181 417.248 443.128 419.424C440.496 420.836 435.387 421.672 432.028 421.904C424.654 422.413 417.142 423.617 409.964 424.887C405.041 425.759 401.684 427.163 396.408 426.143C393.86 425.651 372.729 422.545 379.485 420.931C382.623 420.181 385.007 418.584 386.581 416.566C389.071 413.374 390.753 410.658 395.043 408.37C401.982 404.669 411.574 402.686 419.381 399.892C428.893 396.488 427.791 389.766 432.801 384.003Z" fill="#2E3120"/>
<path d="M222.031 217.486C220.741 213.036 217.629 206.626 217.629 201.915C218.599 201.915 220.36 203.323 221.057 204.136C222.689 206.038 223.571 208.526 225.162 210.453C226.255 211.777 226.609 213.567 227.405 215.092C228.453 217.1 230.215 219.127 231.806 220.571C233.886 222.457 236.509 223.514 238.662 225.358C241.226 227.554 243.183 230.479 245.052 233.452C247.536 237.401 249.315 241.533 252.162 245.199C255.683 249.733 258.52 254.916 262.065 259.413C265.192 263.381 268.644 267.273 272.983 269.333C276.12 270.823 278.446 272.337 281.151 274.664C289.497 281.844 299.97 285.622 309.886 288.878C319.125 291.912 328.013 295.896 337.309 298.749C341.027 299.89 344.57 300.915 348.354 301.611C351.428 302.177 354.468 303.328 357.241 304.968C362.149 307.87 363.706 314.358 368.075 317.849C372.062 321.035 377.923 320.839 382.464 322.291C386.929 323.719 391.348 324.929 395.964 325.499C403.638 326.447 411.443 325.574 419.112 326.388C427.323 327.258 435.192 330.939 443.446 331.866C448.672 332.453 454.142 331.226 459.316 332.162C461.105 332.486 459.461 333.116 458.935 333.618C457.829 334.674 457.012 336.061 456.438 337.567C456.102 338.448 452.585 339.332 451.72 340.034C449.883 341.524 446.618 341.836 444.419 341.836C441.261 341.836 438.471 343.612 435.3 343.612H424.804C420.391 343.612 416.056 344.214 411.664 344.476C405.065 344.871 398.298 344.466 391.753 345.611C387.083 346.428 382.359 346.596 377.682 347.388C373.66 348.069 369.749 349.387 365.663 349.387C361.927 349.387 356.108 350.565 354.533 345.315C353.867 343.097 354.418 340.553 353.56 338.48C351.963 334.624 348.596 331.104 345.921 328.263C343.09 325.257 340.12 322.554 336.716 320.49C333.093 318.292 329.65 318.293 325.686 318.293H325.502C317.62 318.293 309.801 313.909 302.205 311.853C293.257 309.43 283.898 307.175 275.247 303.561C270.337 301.509 265.241 298.356 260.816 295.121C256.549 292.002 252.777 288.841 250.596 283.449C248.287 277.74 247.022 271.793 243.55 266.792C240.856 262.911 238.153 259.033 235.573 255.045C232.434 250.195 230.708 244.602 228.844 238.98C226.481 231.853 224.129 224.731 222.031 217.486Z" fill="#2E3120"/>
<path fill-rule="evenodd" clip-rule="evenodd" d="M164.06 315.384C159.469 313.737 154.878 312.09 150.255 310.515C147.335 309.521 144.991 307.948 142.698 306.409C140.595 304.997 138.534 303.615 136.111 302.733C134.58 302.177 133.453 300.99 132.344 299.823C132.082 299.546 131.82 299.271 131.554 299.005C131.175 298.626 130.493 297.895 129.957 297.256C129.957 296.798 129.932 296.374 129.454 296.135C128.873 295.845 129.307 296.482 129.957 297.256V297.407C129.957 302.631 130.128 308.375 130.519 313.652C131.155 322.235 134.962 329.563 138.789 336.929C140.162 339.57 141.536 342.216 142.769 344.927C143.627 346.816 144.418 348.815 145.218 350.839C147.263 356.007 149.374 361.344 152.858 365.462C156.522 369.792 162.629 372.084 167.971 374.09C168.566 374.314 169.152 374.534 169.724 374.753C178.164 377.982 185.12 382.815 192.377 387.857C193.312 388.507 194.251 389.16 195.2 389.813C197.631 391.488 200.187 393.029 202.748 394.572C207.866 397.657 213.005 400.754 217.214 404.963C222.941 410.69 227.245 419.243 230.322 426.651C233.774 434.962 237.94 443.968 245.886 448.784C251.55 452.217 257.655 454.045 263.789 455.881C268.052 457.157 272.33 458.438 276.481 460.264C278.664 461.225 280.833 462.256 283.007 463.289C288.897 466.088 294.821 468.903 301.158 470.384C306.96 471.74 313.463 471.479 319.718 471.228C322.138 471.13 324.52 471.035 326.811 471.035H401.523C403.954 471.035 406.514 471.146 409.125 471.26C415.749 471.549 422.705 471.853 428.745 470.384C434.345 469.022 440.2 466.486 445.433 464.111C445.865 463.915 451.338 461.117 449.96 460.945C447.154 460.594 444.275 460.663 441.395 460.732C438.94 460.791 436.484 460.85 434.071 460.649C421.445 459.597 408.92 458.448 396.315 457.187C381.837 455.739 369.562 440.878 363.117 429.078C357.592 418.963 352.174 408.54 347.287 398.098C346.766 396.985 346.253 395.869 345.741 394.753C343.853 390.644 341.969 386.544 339.682 382.623C337.063 378.133 333.6 374.711 330.001 371.154C329.463 370.622 328.922 370.087 328.379 369.545C319.595 360.76 308.5 355.133 297.015 350.49C285.922 346.005 274.219 344.307 262.503 342.607C253.915 341.361 245.319 340.113 236.95 337.767C230.202 335.874 223.525 333.64 216.856 331.408C213.445 330.267 210.036 329.126 206.621 328.032C201.807 326.49 196.904 325.268 192.002 324.047C186.263 322.617 180.525 321.188 174.932 319.244C171.297 317.981 167.678 316.683 164.06 315.384ZM194.998 347.529C198.083 350.267 204.182 354.102 208.012 355.283C211.069 356.226 214.096 357.258 217.123 358.29C220.756 359.529 224.389 360.767 228.073 361.852C239.523 365.222 251.254 367.814 262.944 370.397C266.278 371.133 269.609 371.869 272.93 372.622C275.829 373.28 279.012 373.745 282.287 374.224C292.579 375.727 303.786 377.365 309.975 385.523C313.245 389.833 316.01 394.22 318.438 399.075C318.863 399.926 319.464 400.896 320.098 401.92C321.6 404.346 323.29 407.075 323.29 409.253C323.29 412.229 315.886 410.995 314.354 410.496C312 409.729 309.749 408.651 307.492 407.57C305.358 406.548 303.219 405.524 300.98 404.756C295.019 402.711 289.554 400.267 283.878 397.595C279.048 395.323 273.527 394.209 268.099 393.113C265.518 392.592 262.958 392.076 260.503 391.441C257.507 390.666 254.554 389.749 251.601 388.832C247.784 387.646 243.966 386.46 240.057 385.582C229.956 383.315 219.582 380.416 211.444 373.688C203.956 367.495 195.799 357.915 194.998 347.529Z" fill="#2E3120"/>
<path d="M19.8566 161.28C25.0825 153.684 22.8625 139.193 29.502 133.223C36.1414 127.254 35.8984 142.809 38.3994 141.903L38.4078 141.9C41.6798 140.714 44.1328 139.826 47.585 141.995C52.6656 145.189 57.5658 149.335 62.9908 151.158C67.1738 152.564 81.0084 156.061 80.1939 164.024C79.4262 171.529 79.0013 179.619 77.4028 186.803C75.9772 193.208 72.4783 216.81 62.6169 211.314C58.6415 209.098 55.536 203.539 52.9461 199.379C49.908 194.499 44.5383 190.335 40.0506 187.49C31.002 181.754 25.3778 178.883 20.1447 167.838C18.7231 164.838 18.1245 163.798 19.8566 161.28Z" fill="#2E3120"/>
<path d="M449.859 201.464C438.476 199.567 428.952 193.535 418.116 189.824C406.867 185.971 395.599 184.202 383.867 183.323C377.51 182.848 372.151 182.29 365.898 183.709C362.454 184.49 359.435 185.739 356.177 186.91C354.823 187.397 353.43 187.274 352.132 187.66C348.91 188.618 348.444 195.327 347.642 197.676C344.834 205.904 338.262 212.833 333.825 220.308C329.441 227.694 326.106 234.9 323.489 242.988C321.992 247.616 315.533 249.759 312.934 253.909C311.847 255.645 313.51 250.621 313.598 250.227C314.296 247.122 313.98 243.683 313.585 240.494C312.879 234.8 312.753 228.815 311.073 223.214C308.236 213.753 302.967 205.496 298.529 196.633C296.401 192.385 293.026 188.614 290.9 184.363C288.977 180.518 285.814 177.182 284.541 173.14C283.856 170.966 282.51 168.953 283.242 166.691C283.858 164.788 286.385 166.14 287.997 166.661C292.506 168.12 296.245 170.064 299.954 172.932C301.713 174.292 303.058 175.911 304.741 177.348C306.499 178.85 308.638 179.797 310.458 181.208C312.481 182.777 314.859 184.636 316.364 186.623C317.343 187.916 318.671 191.939 320.326 192.561C324.277 194.046 326.652 189.697 327.626 186.983C328.467 184.638 330.067 182.633 331.864 180.832C334.089 178.602 335.486 175.762 337.728 173.515C341.154 170.081 345.682 168.746 349.621 166.091C354.731 162.648 361.995 161.781 368.415 161.611C370.302 161.56 374.431 161.62 374.975 159.518C375.608 157.075 369.077 155.785 367.353 155.287C362.957 154.019 357.228 155.286 352.74 155.166C348.458 155.052 344.27 155.658 339.997 155.698C332.292 155.772 324.401 154.439 316.689 154.577C315.316 154.601 306.443 154.75 307.28 152.61C307.991 150.789 311.822 148.651 313.517 147.571C316.51 145.664 319.437 143.125 321.685 140.51C323.792 138.058 327.712 135.66 330.736 134.151C333.681 132.68 336.387 131.24 339.854 130.755C349.842 129.355 359.538 133.791 368.99 136.85C380.452 140.559 391.906 144.898 403.95 145.614C410.986 146.032 417.91 145.521 424.951 146.577C429.888 147.318 434.468 147.264 439.377 147.275C447.126 147.293 452.324 142.82 459.158 140.86C462.316 139.954 465.375 138.438 468.768 138.088C472.577 137.695 469.109 143.295 468.43 144.62C464.219 152.843 456.863 158.22 450.644 164.939C446.749 169.148 447.135 174.354 450.651 179.154C455.279 185.473 458.81 192.092 463.856 198.204C465.337 199.997 466.802 202.121 468.191 204.018C468.867 204.941 470.169 207.253 470.025 208.385C469.702 210.92 468.752 210.154 465.995 209.262C463.733 208.53 462.6 207.525 460.727 206.332C458.351 204.819 451.277 202.085 449.859 201.464Z" fill="#2E3120"/>
<path d="M239.805 31.7712C235.313 31.8259 231.204 31.8872 226.822 32.9514C228.885 34.0977 232.681 36.9042 234.384 38.5467C236.842 40.917 240.72 42.4895 243.739 44.0545C245.944 45.1978 248.084 46.5917 250.208 47.8794C252.399 49.2071 254.793 49.5962 257.202 50.3492C268.587 53.907 279.261 47.4648 290.73 48.9941C297.363 49.8785 302.922 52.8863 309.265 54.5019C315.185 56.0099 321.243 57.3181 327.012 59.3541C332.92 61.4393 338.143 63.638 344.519 63.638C348.832 63.638 353.181 63.2446 357.436 63.2446C363.622 63.2446 369.067 59.292 374.987 57.9553C377.013 57.4979 379.537 57.6867 381.522 58.305C383.619 58.9582 383.516 60.4612 384.014 62.2392C385.014 65.8107 387.708 69.0022 389.675 72.0746C391.663 75.1817 391.731 78.8786 393.237 82.1067C394.791 85.4358 396.11 88.9136 398.046 92.0515C399.178 93.8859 400.642 95.5689 401.281 97.6686C401.58 98.6529 401.519 100.206 402.679 99.0455C404.594 97.1307 406.304 95.0789 408.187 93.1443C409.613 91.6798 412.515 89.7691 412.515 87.6364C412.515 84.6996 412.218 81.9741 411.815 79.0687C411.143 74.2153 409.968 69.9604 407.706 65.6051C405.964 62.2492 402.587 59.6096 401.281 56.0756C400.049 52.7438 401.7 47.786 402.767 44.6665C404.422 39.8295 407.824 36.2708 411.728 33.1263C412.361 32.6166 419.044 26.6567 416.23 26.6567C413.395 26.6567 410.449 27.1204 407.663 27.6621C400.331 29.0878 392.925 29.8621 385.588 31.2248C375.018 33.1876 364.21 34.8546 353.502 35.902C347.994 36.4409 342.425 36.8911 336.935 35.9239C331.036 34.8848 325.082 33.7457 319.209 32.558C314.589 31.6235 310.054 30.8002 305.374 30.1975C301.63 29.7153 297.896 29.9103 294.14 29.6074C283.113 28.7181 272.095 27.7174 261.049 28.8424C253.946 29.5659 246.958 31.6839 239.805 31.7712Z" fill="#2E3120"/>
<path d="M419.98 223.148C425.091 222.476 430.189 222.767 435.28 221.796L460.777 216.638C460.799 218.052 459.163 220.24 458.161 221.184C455.988 223.232 455.645 227.319 454.374 229.963C452.875 233.085 451.658 236.135 449.643 238.911C446.972 242.593 441.487 245.02 437.772 247.45C432.214 251.085 426.362 254.233 420.846 257.924C414.676 262.053 408.364 266.768 401.424 269.501C388.347 274.652 376.71 273.049 363.096 271.322C355.579 270.369 348.754 269.929 341.179 270.527C337.672 270.803 340.669 268.623 341.942 266.793C348.357 257.572 354.337 247.559 363.9 241.305C371.181 236.542 378.457 233.864 386.647 230.99C393.363 228.633 400.508 226.046 407.589 225.131C411.741 224.595 415.834 223.693 419.98 223.148Z" fill="#2E3120"/>
<path d="M102.55 69.976C82.8314 68.5214 75.1683 42.623 75.1683 42.623C75.1683 42.623 103.271 46.0092 106.343 48.1279C111.549 51.7181 116.965 53.1004 123.115 54.3743C131.474 56.1059 139.604 58.9807 148.072 60.1643C157.225 61.4438 166.439 62.827 175.425 65.0416C179.761 66.1105 184.022 68.12 188.488 68.5214C193.804 68.9992 200.095 68.4068 205.402 67.8654C211.423 67.2509 217.612 67.496 223.627 68.008C228.644 68.4349 233.793 68.4584 238.83 68.664C243.893 68.8706 248.836 69.7449 253.918 69.6623C260.67 69.5525 267.252 68.1221 274.084 68.1221C278.505 68.1221 280.545 70.1215 284.437 71.6018C293.549 75.0667 302.083 79.8582 311.248 83.5242C316.358 85.5681 320.908 87.8324 325.681 90.4836C330.697 93.2706 337.351 94.3447 342.908 95.0472C352.623 96.2755 361.888 97.9888 371.373 100.466C373.741 101.085 379.691 101.12 378.162 104.688C376.002 109.728 370.373 108.313 365.669 108.909C354.372 110.341 341.714 111.748 330.472 108.938C318.683 105.99 306.105 107.535 294.163 105.829C289.825 105.209 285.441 104.853 281.129 104.06C275.055 102.943 269.38 100.935 263.388 99.4967C258.952 98.432 254.373 97.7964 249.897 96.9012C247.457 96.4132 244.741 95.6403 242.224 95.9599C239.019 96.3669 240.544 97.7003 241.853 99.2115C244.153 101.865 247.218 104.75 248.784 107.882C250.993 112.299 251.983 117.681 253.291 122.429C254.947 128.441 256.882 134.102 257.769 140.312C258.637 146.39 259.415 152.314 260.707 158.31C263.786 172.609 267.143 186.643 271.26 200.694C273.664 208.899 276.08 217.203 276.479 225.794C276.542 227.143 276.962 227.689 276.137 226.992C275.014 226.041 273.559 225.527 272.401 224.596C268.444 221.416 264.959 217.71 261.077 214.442C257.141 211.127 253.06 208.212 249.298 204.659C230.498 186.903 230.985 159.256 227.478 135.406C226.907 131.526 227.185 127.589 226.594 123.684C225.874 118.933 224.709 114.393 222.857 109.964C220.814 105.078 218.245 100.47 213.759 97.386C208.971 94.0948 204.077 94.3491 198.471 94.3056C188.972 94.232 180.642 91.2979 171.774 88.1448C161.158 84.3701 150.326 81.2459 139.543 77.9908C127.415 74.3293 115.239 70.9121 102.55 69.976Z" fill="#2E3120"/>
<path d="M-0.000488281 118.067V48.9445C1.54131 45.6655 2.68364 42.1481 3.85222 38.5498C5.51522 33.4291 7.23139 28.1447 10.2277 23.1508L21.2495 11.625C22.2411 13.2661 21.9685 24.6035 21.6876 36.2868C21.3808 49.05 21.064 62.2261 22.3745 63.625C23.724 65.0653 28.391 56.3955 33.5839 46.7488C38.0506 38.451 42.9064 29.4305 46.3745 25.5L62.7495 13.75C60.0494 22.2103 59.3153 30.7526 58.5754 39.3625C57.8413 47.9058 57.1014 56.5155 54.4294 65.1774C52.1797 70.1765 49.4881 74.823 46.7858 79.4877C44.9705 82.6214 43.1504 85.7634 41.4563 89.0261C40.484 90.8986 39.598 92.8022 38.7199 94.6887C35.8903 100.768 33.1434 106.67 27.8617 110.777C23.3681 114.273 14.6428 116.341 8.90707 116.914C5.9474 117.21 2.97472 117.601 -0.000488281 118.067Z" fill="#2E3120"/>
<path d="M-0.000488281 348.615V176.281C0.415389 176.625 0.80706 176.973 1.16386 177.33C1.90196 178.068 2.64178 178.787 3.3758 179.501C6.08816 182.139 8.72135 184.699 10.8961 187.841C13.5963 191.741 14.671 197.362 15.6517 202.491C16.0017 204.322 16.3397 206.09 16.7354 207.694C17.7957 211.995 18.681 216.332 19.566 220.668C20.5589 225.532 21.5516 230.395 22.791 235.204C23.2335 236.921 23.6964 238.651 24.1621 240.392C26.456 248.965 28.8185 257.795 29.1494 266.563C29.8859 286.082 22.5767 300.694 14.0889 317.663C13.9333 317.974 13.7774 318.286 13.6211 318.598C8.82564 328.189 5.04024 337.097 2.28847 347.492C1.59932 350.096 0.842005 349.821 -0.000488281 348.615Z" fill="#2E3120"/>
<path d="M-0.000488281 496.515V414.323C1.16164 412.629 2.30057 410.922 3.41473 409.203C7.09963 403.515 10.3778 397.354 12.8243 391.026C15.1091 385.115 16.9538 379.577 18.7431 374.206C22.7164 362.279 26.4165 351.171 34.0568 338.619C37.5871 332.819 41.4832 326.7 45.9419 321.597C48.3001 318.898 50.4845 316.093 52.6664 313.29C55.6628 309.441 58.6545 305.598 62.0855 302.046L89.1426 274.036C89.7578 273.399 90.3919 272.646 91.0483 271.867C92.5381 270.099 94.1424 268.194 95.9 267.201C96.3556 266.943 96.836 266.683 97.3277 266.418C99.2829 265.361 101.416 264.209 102.875 262.699C103.62 261.927 104.269 262.245 104.808 263.176C105.177 263.815 103.837 265.537 103.064 266.53C102.864 266.787 102.701 266.996 102.617 267.124C99.7731 271.439 97.6138 276.087 95.4451 280.756C94.4289 282.944 93.4107 285.136 92.319 287.3C88.8968 294.085 83.849 299.635 78.792 305.195C76.3054 307.929 73.8165 310.665 71.5177 313.552C62.2299 325.216 56.98 339.203 53.0355 353.476C52.0989 356.865 50.8952 360.186 49.6921 363.505C48.2343 367.527 46.7775 371.547 45.7977 375.682C44.5971 380.748 43.6899 385.89 42.7829 391.03C42.1455 394.642 41.5083 398.254 40.7695 401.838C39.7476 406.795 38.4953 411.696 37.2432 416.597C35.8621 422.003 34.4811 427.407 33.4098 432.886C33.0126 434.917 32.7198 436.981 32.4266 439.048C31.9534 442.385 31.4793 445.727 30.5642 448.946C29.1918 453.773 26.7912 458.241 24.238 462.532L17.7571 471.72C16.2443 474.881 13.815 477.591 11.4364 480.244C10.6979 481.068 9.96421 481.886 9.26438 482.711C7.47259 484.822 6.04605 487.227 4.62153 489.628C3.19934 492.025 1.77915 494.419 -0.000488281 496.515Z" fill="#2E3120"/>
<path d="M166.394 500H142.306C142.332 499.664 142.356 499.33 142.379 499C142.664 494.951 143.143 490.898 143.623 486.843C144.359 480.619 145.095 474.391 145.129 468.167C145.168 461.173 145.395 454.014 146.435 447.083C146.984 443.424 148.42 439.997 149.85 436.584C150.554 434.904 151.257 433.228 151.852 431.528C152.706 429.087 153.898 429.35 156.074 430.833C161.018 434.204 165.631 437.873 170.281 441.573C171.403 442.465 172.526 443.358 173.657 444.25C178.501 448.069 183.697 451.233 188.934 454.422C189.794 454.946 190.657 455.471 191.518 456C193.555 457.249 195.618 458.452 197.681 459.655C199.635 460.794 201.588 461.933 203.518 463.111C205.162 464.114 206.691 465.276 208.22 466.437C209.813 467.648 211.407 468.858 213.129 469.889C220.124 474.073 227.115 477.978 234.602 481.222C239.293 483.255 243.757 485.595 248.24 487.945C250.521 489.141 252.807 490.339 255.129 491.5C259.482 493.677 263.872 495.353 268.629 496.278C268.968 496.344 269.325 496.411 269.696 496.48C272.276 496.964 275.502 497.569 277.602 498.75C278.153 499.06 278.543 499.497 278.842 500H212.866C211.046 498.854 209.239 497.626 207.407 496.278C203.142 493.139 198.346 490.496 193.657 488.028C192.256 487.29 190.774 486.663 189.291 486.035C187.162 485.134 185.03 484.232 183.129 483C180.569 481.34 178.054 479.792 175.157 478.778C173.08 478.051 171.947 478.714 171.241 480.833C170.3 483.655 169.721 486.691 169.147 489.701C168.827 491.378 168.508 493.047 168.129 494.667C167.702 496.495 167.082 498.258 166.394 500Z" fill="#2E3120"/>
<path d="M496.716 500H446.18C446.95 494.387 448.36 488.473 450.145 483.42C450.305 482.967 450.465 482.513 450.625 482.058C452.778 475.937 454.977 469.683 458.614 464.257C462.139 458.999 466.198 454.567 470.587 450.023C481.261 438.974 491.283 427.023 500 414.322V496.514C499.748 496.81 499.49 497.099 499.224 497.382C498.401 498.256 497.565 499.13 496.716 500Z" fill="#2E3120"/>
<path d="M500 176.281V348.616C499.668 348.141 499.323 347.522 498.964 346.878C498.549 346.133 498.114 345.354 497.66 344.724C496.386 342.96 495.088 341.2 493.788 339.436C485.585 328.31 477.254 317.01 473.913 303.459C470.965 291.505 470.799 280.534 470.799 268.25C470.799 267.785 470.798 267.318 470.798 266.85C470.793 257.186 470.788 246.968 472.788 237.54C473.411 234.603 473.902 231.641 474.393 228.681C474.87 225.801 475.347 222.921 475.946 220.065C476.594 216.976 477.481 213.976 478.367 210.978C479.53 207.045 480.692 203.116 481.309 199L486.37 162.537C488.268 163.17 490.423 166.379 491.215 168.16C492.317 170.64 494.897 172.506 497.379 174.302C498.292 174.962 499.191 175.613 500 176.281Z" fill="#2E3120"/>
<path d="M500 118.067C490.316 119.583 480.606 121.89 471.23 124.294C469.25 124.802 467.419 125.383 465.659 125.941C459.942 127.754 454.969 129.331 448.081 127.402C447.495 127.238 446.333 126.956 444.791 126.583C434.875 124.181 409.2 117.962 419.182 114.506C424.542 112.651 428.613 108.7 431.301 103.708C431.862 102.667 432.398 101.647 432.924 100.646C436.388 94.0587 439.39 88.3474 445.75 83.4331C453.467 77.47 463.106 73.3097 472.573 69.2235C477.642 67.0358 482.661 64.8692 487.31 62.4586C493.867 59.0588 497.471 54.3217 500 48.9431V118.067Z" fill="#2E3120"/>
<path d="M496.719 0C490.144 6.73311 482.743 13.2261 474.346 17.3828C473.136 17.9821 471.969 18.632 470.808 19.2789C468.649 20.4821 466.509 21.6746 464.141 22.51C463.579 22.7082 462.973 22.9117 462.344 23.1233C459.63 24.0352 456.464 25.0993 454.369 26.5492C452.81 27.628 451.219 28.6725 449.61 29.6765C449.497 29.7472 449.177 29.9909 448.761 30.3088C447.48 31.2878 445.279 32.9697 445.336 32.4614C445.712 29.136 446.008 26.1625 445.522 22.7537C444.777 17.5339 445.153 12.2409 445.524 7.00534C445.572 6.32672 445.62 5.64906 445.666 4.97265C445.774 3.36394 445.948 1.69571 446.181 0H496.719Z" fill="#2E3120"/>
<path d="M278.84 0H212.86C217.1 2.66991 221.407 4.88957 226.241 7.11486C231.166 9.38261 236.256 11.0439 241.353 12.7076C244.782 13.8267 248.214 14.947 251.602 16.2537C258.064 18.7465 263.73 20.1893 270.741 19.2815C272.179 19.0953 288.492 16.3717 288.018 14.8926C287.649 13.7387 286.482 12.6599 285.341 11.6054C284.497 10.8243 283.666 10.0565 283.185 9.28152C281.714 6.91155 280.368 4.25858 279.518 1.61486C279.336 1.04854 279.132 0.492015 278.84 0Z" fill="#2E3120"/>
<path d="M166.396 0H142.306C142.125 2.36887 141.886 4.87855 141.639 7.46641C140.733 16.9572 139.727 27.4995 141.129 36.0037C142.609 36.0037 143.43 33.4215 144.059 31.4429C144.264 30.7972 144.449 30.2157 144.629 29.8093C145.691 27.4206 148.273 25.2472 150.484 23.386C151.081 22.8833 151.651 22.4034 152.157 21.9482C152.848 21.3263 153.571 20.7086 154.301 20.0841C157.785 17.1048 161.447 13.9727 162.741 9.50375C163.409 7.19606 164.334 4.98394 165.257 2.77616C165.643 1.85224 166.029 0.929087 166.396 0Z" fill="#2E3120"/>
<path d="M82.8458 127.792C87.4455 135.636 92.0493 143.487 94.7961 152.201C96.8999 158.875 98.1404 166.306 99.1294 173.229C100.095 179.988 102.386 186.304 105.352 192.451C106.127 194.059 106.847 195.776 107.577 197.519C109.447 201.979 111.387 206.609 114.518 210.007C117.404 213.138 120.542 216.072 123.679 219.007C126.216 221.38 128.753 223.752 131.157 226.229C133.594 228.74 135.975 231.325 138.357 233.912C146.475 242.728 154.618 251.571 165.129 257.618C168.862 259.765 172.903 261.01 176.959 262.261C178.519 262.741 180.081 263.223 181.629 263.757C185.819 265.202 189.742 267.553 193.435 269.979C194.444 270.642 195.565 271.143 196.687 271.644C197.994 272.228 199.301 272.812 200.431 273.653L200.518 273.729C201.57 274.65 202.369 275.367 202.643 275.614C202.448 275.438 201.97 275.001 201.129 274.229C200.906 274.024 200.673 273.833 200.431 273.653C199.413 272.764 198.388 271.891 197.367 271.022C192.668 267.024 188.045 263.09 184.518 257.84C180.206 251.422 177.185 242.763 177.185 234.979C177.185 228.561 180.942 222.533 184.249 217.228L184.352 217.062C188.161 210.949 191.594 204.362 194.074 197.59C198.366 185.869 201.994 172.837 203.018 160.34C203.302 156.884 203.241 153.372 203.18 149.879C203.155 148.417 203.129 146.957 203.129 145.507C203.129 141.81 202.732 137.178 200.102 134.285C194.189 127.781 184.923 125.084 176.696 122.69C176.037 122.498 175.384 122.308 174.741 122.118C174.608 122.079 174.475 122.039 174.342 122C176.221 123.644 177.629 125.521 177.629 127.75C177.629 131.303 175.369 133.979 173.121 136.641C171.855 138.14 170.593 139.634 169.741 141.278C168.337 143.985 166.846 146.641 165.355 149.296C163.88 151.924 162.405 154.551 161.018 157.222C160.116 158.96 158.825 160.427 157.532 161.897C156.523 163.044 155.513 164.193 154.685 165.472C152.615 168.671 152.621 171.738 152.629 175.353C152.629 175.567 152.629 175.782 152.629 176C152.629 178.737 152.504 181.459 152.379 184.178C152.254 186.894 152.129 189.608 152.129 192.333V205.917C152.129 206.142 152.131 206.353 152.133 206.545C152.145 208.147 152.149 208.555 151.102 206.722C150.484 205.642 149.837 204.562 149.186 203.476C146.81 199.511 144.38 195.458 143.157 190.972C142.07 186.986 142.123 182.894 142.176 178.804C142.227 174.92 142.278 171.038 141.352 167.25C138.965 157.487 133.122 149.29 127.359 141.206C125.8 139.018 124.246 136.839 122.768 134.639C121.164 132.251 119.57 129.831 117.971 127.404C113.996 121.369 109.992 115.291 105.741 109.556C104.214 107.496 102.627 105.542 100.943 103.723C98.444 102.542 95.5157 101.967 92.7227 101.419C91.9842 101.274 91.2552 101.131 90.5461 100.979C77.656 96.3179 71.402 91.2991 68.7657 89.1835C67.5843 88.2354 67.1294 87.8704 67.1294 88.3819C67.6635 96.572 71.0526 105.127 74.4905 112.479C76.9464 117.731 79.8953 122.76 82.8458 127.792Z" fill="#2E3120"/>
</svg>
