<svg width="334" height="313" viewBox="0 0 334 313" xmlns="http://www.w3.org/2000/svg">
<path fill-rule="evenodd" clip-rule="evenodd" d="M126.7 144.787C120.304 137.3 117.054 133.738 101.924 129.601C88.8131 126.016 67.3921 129.662 67.3911 143.517C47.2728 143.519 48.7416 146.499 58.3278 152.044C67.9139 157.59 81.9184 167.172 88.015 176.3C86.5802 182.955 71.2808 188.013 66.8508 190.519C49.2663 200.462 32.8103 215.614 17.8001 228.8C6.99165 238.292 4.02802 276.862 2.78372 291.419C2.29401 297.111 2.37747 297.462 1.19393 302.976C-0.198809 309.4 0.918726 316.942 6.75759 310.238C10.6683 305.748 11.4956 306.072 15.0206 302.975C23.9725 295.108 30.3207 281.661 39.8181 273.321C57.3676 257.901 77.4651 244.238 101.916 237.138C117.985 232.472 116.204 229.321 131.89 223.448C140.531 220.216 144.628 209.292 169.487 215.14C170.684 214.906 201.396 222.59 202.487 223.448C213.909 232.423 211.909 234.184 226.247 245.29C228.408 246.383 294.909 301.184 288.093 293.698C283.909 280.684 224.409 226.684 229.909 215.14C240.409 205.684 322.909 250.529 333.409 250.529C333.409 250.529 268.194 210.238 259.694 202.238C245.194 195.738 233.409 187.561 222.487 185.14C220.425 184.683 198.384 164.219 199.075 161.011C201.88 147.974 209.222 150.591 212.085 137.293C217.889 110.338 222.398 78.0109 227.645 53.6402C228.615 49.1358 234.903 43.894 237.771 40.8085C245.187 32.8167 251.387 23.3509 257.879 14.3951C258.92 12.9539 266.846 3.16975 266.23 2.68367C254.519 -6.5612 185.747 12.151 175.404 21.2377C160.634 34.2128 160.455 87.7117 150.815 111.585C145.997 123.52 142.109 135.195 126.7 144.787Z" fill="black"/>
</svg>
