<svg width="200" height="200" viewBox="0 0 200 200" fill="none" xmlns="http://www.w3.org/2000/svg">
<g clip-path="url(#clip0_325_1565)">
<path fill-rule="evenodd" clip-rule="evenodd" d="M0 0.000366211C0 55.2289 44.7715 100 100 100C44.7715 100 0 144.772 0 200H12C12 151.399 51.3989 112 100 112C148.601 112 188 151.399 188 200H200C200 144.772 155.228 100 100 100C155.228 100 200 55.2289 200 0.000366211H188C188 48.6015 148.601 88.0004 100 88.0004C51.3989 88.0004 12 48.6015 12 0.000366211H0ZM24 0.000366211C24 41.974 58.0264 76.0004 100 76.0004C141.974 76.0004 176 41.974 176 0.000366211H164C164 35.3466 135.346 64.0004 100 64.0004C64.6538 64.0004 36 35.3466 36 0.000366211H24ZM48 0.000366211C48 28.7192 71.2812 52.0004 100 52.0004C128.719 52.0004 152 28.7192 152 0.000366211H140C140 22.0918 122.091 40.0004 100 40.0004C77.9086 40.0004 60 22.0918 60 0.000366211H48ZM100 124C141.974 124 176 158.026 176 200H164C164 164.654 135.346 136 100 136C64.6538 136 36 164.654 36 200H24C24 158.026 58.0264 124 100 124ZM100 148C128.719 148 152 171.281 152 200H140C140 177.909 122.091 160 100 160C77.9086 160 60 177.909 60 200H48C48 171.281 71.2812 148 100 148Z" fill="#FFDB27"/>
</g>
<defs>
<clipPath id="clip0_325_1565">
<rect width="200" height="200" fill="white" transform="translate(0 0.000366211)"/>
</clipPath>
</defs>
</svg>
