<svg width="24" height="18" viewBox="0 0 24 18" fill="none" xmlns="http://www.w3.org/2000/svg">
<path fill-rule="evenodd" clip-rule="evenodd" d="M24 11C23.91 4.31001 23.95 4.69001 23.85 4.30001C23.59 3.44001 23 3.16001 22 2.93001C18.61 2.14001 11.42 2.68001 7.99999 3.00001C7.99999 2.27001 7.82999 0.710008 7.84999 0.820008C7.70999 0.060008 6.63999 0.170008 6.34999 0.120008C5.50238 -0.00133895 4.63913 0.0462417 3.80999 0.260008C2.39999 0.740008 2.50999 1.71001 2.80999 3.18001H2.71999C2.46143 3.07483 2.18371 3.02494 1.9047 3.03355C1.62569 3.04216 1.35158 3.10908 1.09999 3.23001C0.269993 3.72001 0.169993 4.60001 0.0699932 5.55001C-0.0334553 6.97017 0.00338967 8.39708 0.179993 9.81001C0.156085 11.7858 0.273048 13.7608 0.529993 15.72C0.525451 16.103 0.625736 16.4799 0.819993 16.81C1.63999 17.92 4.09999 17.53 5.81999 17.71C10.11 18.14 13.99 17.84 18.09 17.86C19.8 17.86 22.52 18.29 23.4 16.97C23.6812 16.4142 23.8349 15.8027 23.85 15.18C24.0225 13.7938 24.0727 12.395 24 11ZM3.57999 1.56001C3.80999 1.18001 5.57999 1.18001 6.19999 1.23001C6.81999 1.28001 6.86999 1.00001 6.99999 1.48001C7.12316 1.98022 7.21335 2.48798 7.26999 3.00001C5.38999 3.00001 6.62999 2.90001 3.43999 3.10001C3.38953 2.58244 3.43702 2.05999 3.57999 1.56001ZM22.72 15C22.7012 15.46 22.6031 15.9134 22.43 16.34C21.99 17 19.3 16.71 18.09 16.71C9.82999 16.71 14.72 17.09 2.64999 16.64C1.37999 16.5 1.53999 16.39 1.38999 15.58C1.03999 12.58 0.389993 7.08001 0.839993 4.87001C0.936128 4.66821 1.07559 4.49009 1.24844 4.34836C1.42129 4.20662 1.62327 4.10475 1.83999 4.05001C3.88429 3.81364 5.94285 3.72341 7.99999 3.78001C11.16 3.54001 18.45 3.09001 21.75 3.92001C22.95 4.22001 22.81 4.44001 22.83 4.84001C22.85 5.24001 22.83 5.25001 22.83 10.97C22.9044 12.3141 22.8676 13.662 22.72 15Z" fill="black"/>
<path fill-rule="evenodd" clip-rule="evenodd" d="M6.04998 11.55L7.04998 11.47C8.46998 11.36 8.16998 10.77 7.04998 10.69C4.25998 10.45 5.11998 10.31 2.86998 10.53C2.44418 10.5133 2.01931 10.5813 1.61998 10.73C1.51689 10.7832 1.43409 10.8687 1.38429 10.9735C1.33448 11.0782 1.32042 11.1964 1.34426 11.31C1.3681 11.4235 1.42852 11.526 1.51626 11.6019C1.604 11.6778 1.71421 11.7228 1.82998 11.73C3.23777 11.8803 4.6601 11.8196 6.04998 11.55Z" fill="black"/>
<path fill-rule="evenodd" clip-rule="evenodd" d="M5.74997 7.05001C6.25618 7.08045 6.76376 7.08045 7.26997 7.05001C7.33855 7.04292 7.40366 7.0163 7.45754 6.97329C7.51143 6.93028 7.55183 6.87271 7.57395 6.80741C7.59607 6.7421 7.59897 6.67183 7.58231 6.60492C7.56565 6.53802 7.53013 6.47731 7.47997 6.43001C6.91562 6.26113 6.33626 6.14727 5.74997 6.09001C4.25008 5.94834 2.73754 6.02582 1.25997 6.32001C0.699972 6.54001 0.839972 7.01001 1.52997 7.15001C2.93503 7.29961 4.35358 7.266 5.74997 7.05001Z" fill="black"/>
<path fill-rule="evenodd" clip-rule="evenodd" d="M6.63996 9.17001C8.04996 9.34001 7.63996 8.33001 7.13996 8.46001C7.13996 8.41001 6.82996 8.46001 6.78996 8.41001L5.78996 8.21001C4.83925 8.11001 3.88068 8.11001 2.92996 8.21001C2.47584 8.25527 2.02497 8.32874 1.57996 8.43001C1.04996 8.61001 1.11996 8.93001 1.57996 9.16001C4.41996 9.45001 4.23996 9.12001 6.63996 9.17001Z" fill="black"/>
<path fill-rule="evenodd" clip-rule="evenodd" d="M17.47 4.99999C17.4067 4.93947 17.3226 4.9057 17.235 4.9057C17.1475 4.9057 17.0633 4.93947 17 4.99999C16.7 5.29999 17.07 5.59999 17.4 5.79999C18.0562 6.04961 18.6525 6.43464 19.15 6.92999C19.6628 7.48216 19.9882 8.18206 20.08 8.92999C20.2347 10.0108 20.177 11.1113 19.91 12.17C19.7893 12.5668 19.5481 12.9163 19.22 13.17C18.8805 13.4277 18.5191 13.6552 18.14 13.85C15.61 15.15 10.8 13.8 10.71 11C10.7036 10.123 10.8283 9.25006 11.08 8.40999C11.2102 7.94485 11.4345 7.51139 11.7389 7.13641C12.0434 6.76144 12.4215 6.45293 12.85 6.22999C14.49 5.38999 15.74 5.79999 15.97 5.58999C15.9985 5.5629 16.0211 5.53032 16.0366 5.49422C16.052 5.45813 16.06 5.41926 16.06 5.37999C16.06 5.34071 16.052 5.30185 16.0366 5.26575C16.0211 5.22965 15.9985 5.19707 15.97 5.16999C15.83 4.87999 14.52 4.99999 14.44 4.99999C13.7562 5.0326 13.0871 5.20991 12.4769 5.52019C11.8667 5.83047 11.3292 6.26667 10.9 6.79999C10.355 7.57555 9.9926 8.46443 9.84002 9.39999C9.61013 10.2921 9.61013 11.2279 9.84002 12.12C10.84 14.73 14.53 15.86 17.22 15.32C18.1912 15.0738 19.0917 14.6047 19.85 13.95C21.05 12.95 21.09 11.57 21.06 10.04C21 5.86999 18 5.43999 17.47 4.99999Z" fill="black"/>
<path fill-rule="evenodd" clip-rule="evenodd" d="M13.12 9.07999C12.98 10.08 12.35 11.72 13.5 12.3C13.8582 12.4221 14.232 12.4929 14.61 12.51C15.1445 12.6057 15.6871 12.6492 16.23 12.64C16.6811 12.6743 17.1297 12.5474 17.496 12.2818C17.8623 12.0163 18.1224 11.6294 18.23 11.19C18.2721 10.4524 18.1945 9.71278 18 8.99999C17.74 6.99999 17.22 7.17999 14.3 7.28999C13 7.19999 13.19 8.60999 13.12 9.07999ZM13.88 7.86999C14.31 8.00999 16.64 7.86999 16.94 8.20999C17.24 11.33 17.59 11.69 14.73 11.42C14.52 11.42 13.89 11.42 13.84 11.34C13.46 10.68 14.09 8.27999 13.88 7.86999Z" fill="black"/>
</svg>
