<svg width="358" height="357" viewBox="0 0 358 357" fill="none" xmlns="http://www.w3.org/2000/svg">
<path d="M187.32 2.62285C181.065 -0.0819668 177.237 -0.0819668 170.982 2.62285C149.471 11.9247 159.599 91.0968 168.121 140.079C149.531 93.9673 116.386 21.3573 93.2037 24.7977C86.4627 25.798 83.2105 27.8165 79.3222 33.4132C67.074 51.0429 108.294 104.482 140.722 141.868C102.051 110.983 46.9833 71.9657 29.8651 84.9191C24.4308 89.0313 22.5459 92.3627 21.8199 99.1388C19.4705 121.064 84.7483 149.07 131.478 166.217C82.3628 158.13 11.7571 150.361 3.00511 170.6C0.300292 176.855 0.300292 180.683 3.00511 186.938C11.7571 207.177 82.3627 199.408 131.478 191.321C84.7482 208.468 19.4705 236.474 21.8198 258.399C22.5459 265.175 24.4307 268.507 29.8651 272.619C46.9832 285.572 102.05 246.555 140.721 215.671C108.293 253.057 67.0738 306.495 79.322 324.125C83.2103 329.721 86.4624 331.74 93.2035 332.74C116.386 336.181 149.531 263.57 168.121 217.458C159.6 266.44 149.471 345.613 170.982 354.915C177.237 357.62 181.065 357.62 187.32 354.915C208.832 345.613 198.702 266.435 190.18 217.453C208.77 263.564 241.916 336.181 265.1 332.74C271.841 331.74 275.093 329.721 278.981 324.125C291.229 306.495 250.01 253.057 217.582 215.671C256.253 246.555 311.32 285.572 328.438 272.619C333.872 268.507 335.757 265.175 336.483 258.399C338.833 236.474 273.555 208.468 226.825 191.321C275.941 199.408 346.546 207.177 355.297 186.938C358.002 180.683 358.002 176.855 355.297 170.6C346.546 150.361 275.941 158.13 226.825 166.217C273.555 149.07 338.833 121.064 336.483 99.1388C335.757 92.3627 333.872 89.0313 328.438 84.9191C311.32 71.9657 256.252 110.983 217.581 141.868C250.009 104.482 291.229 51.0429 278.981 33.4132C275.093 27.8165 271.84 25.798 265.099 24.7977C241.916 21.3572 208.77 93.9726 190.18 140.084C198.702 91.1022 208.832 11.925 187.32 2.62285Z" fill="#F4ADB3"/>
</svg>
