<svg width="18" height="24" viewBox="0 0 18 24" fill="none" xmlns="http://www.w3.org/2000/svg">
<path fill-rule="evenodd" clip-rule="evenodd" d="M9.09001 0.849982C7.89655 0.828286 6.71055 1.04238 5.60001 1.47998C5.31329 1.63125 5.03909 1.80514 4.78001 1.99998C4.12048 2.51828 3.53798 3.12771 3.05001 3.80998C2.82551 4.1261 2.62814 4.46062 2.46001 4.80998C1.80567 5.91044 1.42501 7.15188 1.35001 8.42998C1.41575 9.83654 1.72712 11.2207 2.27001 12.52C3.72803 15.6026 5.93947 18.268 8.70001 20.27C9.68338 21.0691 10.734 21.7817 11.84 22.4C12.04 22.5 12.25 22.58 12.46 22.66C14.34 23.45 14.53 23.18 14.7 22.77C14.6899 22.6993 14.6572 22.6338 14.6067 22.5833C14.5562 22.5328 14.4907 22.5001 14.42 22.49C13.6364 22.3753 12.8806 22.1177 12.19 21.73C11.1289 21.1065 10.1249 20.3904 9.19001 19.59C6.49354 17.5247 4.4177 14.7569 3.19001 11.59C4.49001 11.68 5.79001 11.76 7.10001 11.78C8.41001 11.8 9.49001 11.78 10.68 11.78L15.87 11.58V10.58C15.057 10.6898 14.233 10.6898 13.42 10.58C14.0128 10.2397 14.5192 9.76753 14.9 9.19998C14.9379 9.1357 14.9713 9.06887 15 8.99998C15.5641 8.19578 15.8668 7.23731 15.8668 6.25498C15.8668 5.27266 15.5641 4.31418 15 3.50998C14.382 2.64327 13.5476 1.95369 12.58 1.50998C11.4786 1.03858 10.2875 0.813335 9.09001 0.849982ZM6.37001 10.49C5.22001 10.49 4.07001 10.6 2.92001 10.65C2.65054 9.61373 2.61758 8.53014 2.82357 7.47943C3.02955 6.42871 3.46922 5.43778 4.11001 4.57998C4.53215 4.00563 5.02999 3.49097 5.59001 3.04998C6.12845 2.61074 6.74155 2.272 7.40001 2.04998C7.55001 2.04998 7.73001 1.99998 7.89001 1.96998C7.82001 2.78998 7.74001 3.61998 7.69001 4.44998V6.16998L7.94001 10.43L6.37001 10.49ZM8.76001 10.49V9.71998C8.89965 9.93237 9.06047 10.13 9.24001 10.31C9.33001 10.4 9.44001 10.42 9.54001 10.5L8.76001 10.49ZM11.82 2.54998C12.5147 2.7755 13.1393 3.17662 13.6333 3.71449C14.1274 4.25235 14.4742 4.90872 14.64 5.61998C14.7949 6.66184 14.5752 7.72487 14.02 8.61998C13.7532 9.06011 13.3817 9.4274 12.9385 9.68912C12.4953 9.95084 11.9943 10.0989 11.48 10.12C11.1896 10.1429 10.8974 10.1089 10.62 10.02C10.3524 9.93887 10.1063 9.79877 9.90001 9.60998C9.5749 9.33479 9.32268 8.98366 9.16569 8.5877C9.00871 8.19175 8.9518 7.76319 9.00001 7.33998C9.14001 6.66998 9.77001 6.25998 10.9 6.47998C11.0019 6.4978 11.1067 6.47547 11.1925 6.41767C11.2782 6.35987 11.3383 6.2711 11.36 6.16998C11.3778 6.0681 11.3555 5.96328 11.2977 5.87752C11.2399 5.79175 11.1511 5.73171 11.05 5.70998C10.707 5.61228 10.3474 5.58761 9.99425 5.63757C9.64114 5.68752 9.30243 5.81098 9.00001 5.99998V3.90998C9.00001 3.21998 8.92001 2.55998 8.86001 1.90998C9.87677 1.91102 10.8831 2.11501 11.82 2.50998V2.54998Z" fill="black"/>
<path fill-rule="evenodd" clip-rule="evenodd" d="M9.09 0.850012C12.3433 0.890012 15.0667 1.00668 17.26 1.20001C16.8 10.01 16.26 10.63 16.52 19.93C16.52 20.77 16.57 21.6 16.65 22.43C16.6525 22.4808 16.6652 22.5306 16.6873 22.5765C16.7095 22.6223 16.7406 22.6632 16.7788 22.6968C16.8171 22.7304 16.8616 22.7559 16.9099 22.7719C16.9583 22.7879 17.0093 22.7941 17.06 22.79C17.1112 22.7875 17.1615 22.7748 17.2078 22.7528C17.2542 22.7308 17.2957 22.6999 17.3301 22.6618C17.3644 22.6237 17.391 22.5792 17.4081 22.5309C17.4253 22.4825 17.4327 22.4312 17.43 22.38V19.94C17.5 18.02 17.67 16.1 17.73 14.17V9.41001C17.73 7.82001 17.68 6.24001 17.73 4.66001C17.94 -0.999988 18.52 0.420012 11.27 1.19358e-05C10.54 1.19358e-05 9.82 -0.0699881 9.09 -0.0899881C8.36 -0.109988 7.64 -0.0899881 6.92 -0.0899881C5.23 1.19358e-05 2.8 0.110012 1.1 0.210012C1.05014 0.211512 1.00138 0.225022 0.957857 0.249395C0.914334 0.273768 0.877335 0.308284 0.850002 0.350012C0.804909 0.382575 0.767302 0.424406 0.739706 0.472699C0.712109 0.520993 0.695163 0.57463 0.690002 0.630012C0.490002 3.30001 0.280002 6.00001 0.190002 8.71001V14.11C0.270002 16.17 0.440002 18.22 0.550002 20.27C0.600002 21.15 0.630002 22.52 0.650002 23.4C0.64992 23.4451 0.659071 23.4897 0.676891 23.5311C0.694712 23.5725 0.720824 23.6098 0.753618 23.6407C0.786411 23.6716 0.825191 23.6955 0.867567 23.7109C0.909942 23.7262 0.955013 23.7327 1 23.73L9.61 24.04C11.01 24.09 12.56 23.87 14.05 23.89C15.1288 23.9108 16.2078 23.8607 17.28 23.74C17.3323 23.7341 17.3828 23.7177 17.4286 23.6918C17.4744 23.6659 17.5144 23.6309 17.5464 23.5891C17.5783 23.5473 17.6014 23.4995 17.6144 23.4485C17.6273 23.3975 17.6298 23.3444 17.6217 23.2924C17.6136 23.2404 17.5951 23.1906 17.5672 23.146C17.5394 23.1013 17.5028 23.0628 17.4597 23.0327C17.4165 23.0026 17.3677 22.9815 17.3162 22.9707C17.2647 22.9599 17.2116 22.9597 17.16 22.97C17.02 22.97 17.86 22.97 14.92 23.15C9.28 23.15 7.14 23.26 1.36 23.02C1.41 21.96 1.44 20.4 1.45 19.34V14.07V12.52C1.45 12.42 1.27 8.12001 1.28 8.39001L1.47 0.920012C4.16 0.850012 6.59 0.830012 8.78 0.850012H9.09Z" fill="black"/>
</svg>
