<svg width="400" height="400" viewBox="0 0 400 400" fill="none" xmlns="http://www.w3.org/2000/svg">
<path d="M98 145C151.5 199.026 242.37 191.425 300 147.447" stroke="black" stroke-opacity="0.9" stroke-width="16" stroke-linecap="round" stroke-linejoin="round"/>
<path d="M174.555 184C176.661 246.822 171.038 309.116 163 371" stroke="black" stroke-opacity="0.9" stroke-width="16" stroke-linecap="round" stroke-linejoin="round"/>
<path d="M215.354 186C214.336 246.761 204.144 311.239 219 371" stroke="black" stroke-opacity="0.9" stroke-width="16" stroke-linecap="round" stroke-linejoin="round"/>
<path d="M177.644 126.281C179.552 119.152 184.415 112.59 190.836 108.892C214.451 95.2909 233.661 133.136 218.744 150.317C197.404 174.9 163.513 157.809 177.136 125.769" stroke="black" stroke-opacity="0.9" stroke-width="16" stroke-linecap="round" stroke-linejoin="round"/>
<path d="M93 121.777C125.006 5.95762 282.573 -12.1025 313 129" stroke="#EDB902" stroke-opacity="0.8" stroke-width="16" stroke-linecap="round" stroke-linejoin="round"/>
<path d="M122 138.406C139.65 46.4183 255.058 34.6063 271 139" stroke="#EDB902" stroke-opacity="0.8" stroke-width="16" stroke-linecap="round" stroke-linejoin="round"/>
<path d="M93 146C86.8472 145.094 83.557 139.035 80 134" stroke="black" stroke-opacity="0.9" stroke-width="16" stroke-linecap="round" stroke-linejoin="round"/>
<path d="M305 148.921C312.283 149.81 317.166 143 321 137" stroke="black" stroke-opacity="0.9" stroke-width="16" stroke-linecap="round" stroke-linejoin="round"/>
</svg>
