<svg width="783" height="800" viewBox="0 0 783 800" fill="none" xmlns="http://www.w3.org/2000/svg">
<rect width="783" height="800" rx="80" fill="#FFDB27"/>
<g filter="url(#filter0_d_148_3)">
<path fill-rule="evenodd" clip-rule="evenodd" d="M210.375 63H26.625V231.75C26.625 317.684 96.5688 388.616 187.027 399.151C95.3005 408.607 24 480.076 24 566.84L24 735.59H207.75C301.323 735.59 378.56 671.354 390.031 588.282C400.327 672.522 478.149 738 572.626 738H756.376V569.25C756.376 483.316 686.43 412.383 595.973 401.85C687.701 392.395 759 320.924 759 234.161V65.4107L575.25 65.4107C481.677 65.4107 404.44 129.645 392.97 212.718C382.674 128.48 304.851 63 210.375 63Z" fill="white"/>
</g>
<path d="M223.551 506V482.15H257.751V276.5H223.551V252.65H309.501L392.301 430.4L471.051 252.65H558.351V276.5H524.151V482.15H558.351V506H456.201V482.15H489.051V282.8L393.651 492.95H381.951L285.201 282.8V482.15H318.051V506H223.551Z" fill="black"/>
<defs>
<filter id="filter0_d_148_3" x="20" y="63" width="743" height="683" filterUnits="userSpaceOnUse" color-interpolation-filters="sRGB">
<feFlood flood-opacity="0" result="BackgroundImageFix"/>
<feColorMatrix in="SourceAlpha" type="matrix" values="0 0 0 0 0 0 0 0 0 0 0 0 0 0 0 0 0 0 127 0" result="hardAlpha"/>
<feOffset dy="4"/>
<feGaussianBlur stdDeviation="2"/>
<feComposite in2="hardAlpha" operator="out"/>
<feColorMatrix type="matrix" values="0 0 0 0 0.0156863 0 0 0 0 0.0156863 0 0 0 0 0.129412 0 0 0 0.25 0"/>
<feBlend mode="normal" in2="BackgroundImageFix" result="effect1_dropShadow_148_3"/>
<feBlend mode="normal" in="SourceGraphic" in2="effect1_dropShadow_148_3" result="shape"/>
</filter>
</defs>
</svg>
