<svg width="358" height="357" viewBox="0 0 358 357" fill="none" xmlns="http://www.w3.org/2000/svg">
<path d="M226.809 158.72C302.062 161.118 357.307 169.051 357.307 178.469C357.307 187.886 302.062 195.82 226.809 198.217C278.326 253.124 311.78 297.798 305.121 304.457C298.462 311.116 253.788 277.662 198.881 226.145C196.483 301.399 188.55 356.643 179.132 356.643C169.715 356.643 161.781 301.399 159.384 226.145C104.477 277.662 59.8028 311.116 53.1437 304.457C46.4846 297.798 79.9387 253.124 131.456 198.217C56.2023 195.82 0.95752 187.886 0.95752 178.469C0.95752 169.051 56.2023 161.118 131.456 158.72C79.9387 103.813 46.4846 59.1392 53.1436 52.4801C59.8027 45.8211 104.477 79.2753 159.384 130.792C161.781 55.5388 169.715 0.293945 179.132 0.293945C188.55 0.293945 196.483 55.5387 198.881 130.792C253.788 79.2751 298.462 45.821 305.121 52.48C311.78 59.1391 278.326 103.813 226.809 158.72Z" fill="#2F2965"/>
</svg>
