<svg width="200" height="200" viewBox="0 0 200 200" fill="none" xmlns="http://www.w3.org/2000/svg">
<path d="M7.69218 51.2825C13.0556 51.2825 15.3455 52.8087 18.8108 55.1188C23.1011 57.9789 28.44 61.5391 38.4609 61.5391C48.4822 61.5391 53.8214 57.9793 58.1113 55.1188C61.5757 52.8087 63.8652 51.2832 69.227 51.2832C74.5901 51.2832 76.879 52.8093 80.3444 55.1188C84.6352 57.9796 89.9742 61.5391 99.9964 61.5391C110.017 61.5391 115.357 57.9793 119.648 55.1188C123.112 52.809 125.402 51.2832 130.765 51.2832C136.129 51.2832 138.419 52.8093 141.885 55.1195C146.176 57.9796 151.515 61.5397 161.537 61.5397C171.558 61.5397 176.898 57.9799 181.188 55.1195C184.654 52.8093 186.944 51.2832 192.308 51.2832C196.556 51.2832 200 47.839 200 43.591C200 39.3426 196.556 35.8982 192.308 35.8982C182.285 35.8982 176.945 39.458 172.654 42.3184C169.189 44.6286 166.9 46.1541 161.537 46.1541C156.173 46.1541 153.884 44.6279 150.418 42.3178C146.128 39.4576 140.788 35.8975 130.765 35.8975C120.744 35.8975 115.404 39.4573 111.113 42.3178C107.649 44.6279 105.359 46.1541 99.9964 46.1541C94.6323 46.1541 92.3431 44.6279 88.8777 42.3178C84.5875 39.4576 79.2473 35.8975 69.2267 35.8975C59.2054 35.8975 53.8662 39.4573 49.5763 42.3178C46.1119 44.6279 43.8224 46.1534 38.4606 46.1534C33.0988 46.1534 30.8089 44.6273 27.3449 42.3178C23.054 39.457 17.7144 35.8969 7.69218 35.8969C3.4438 35.8978 0 39.342 0 43.5903C0 47.8387 3.4438 51.2825 7.69218 51.2825ZM192.308 87.18C182.286 87.18 176.946 90.7398 172.655 93.6003C169.19 95.9104 166.9 97.4359 161.538 97.4359C156.174 97.4359 153.884 95.9098 150.419 93.5996C146.128 90.7395 140.788 87.1794 130.766 87.1794C120.745 87.1794 115.405 90.7392 111.114 93.5996C107.649 95.9095 105.36 97.4353 99.997 97.4353C94.633 97.4353 92.3438 95.9091 88.8784 93.599C84.5882 90.7389 79.248 87.1787 69.2273 87.1787C59.2061 87.1787 53.8668 90.7385 49.577 93.599C46.1126 95.9091 43.823 97.4346 38.4612 97.4346C33.0995 97.4346 30.8096 95.9085 27.3455 93.599C23.0546 90.7389 17.7151 87.1787 7.69284 87.1787C3.4438 87.18 0 90.6242 0 94.8722C0 99.1206 3.4438 102.564 7.69218 102.564C13.0556 102.564 15.3455 104.091 18.8108 106.401C23.1011 109.261 28.44 112.821 38.4609 112.821C48.4822 112.821 53.8214 109.261 58.1113 106.401C61.5757 104.091 63.8652 102.565 69.227 102.565C74.5901 102.565 76.879 104.091 80.3444 106.401C84.6352 109.261 89.9742 112.821 99.9964 112.821C110.017 112.821 115.357 109.261 119.648 106.401C123.112 104.091 125.402 102.564 130.765 102.564C136.129 102.564 138.419 104.091 141.885 106.401C146.176 109.261 151.515 112.821 161.537 112.821C171.558 112.821 176.898 109.261 181.188 106.401C184.654 104.091 186.944 102.564 192.308 102.564C196.556 102.564 200 99.1203 200 94.8722C200.001 90.6242 196.557 87.18 192.308 87.18ZM192.308 138.462C182.286 138.462 176.946 142.022 172.655 144.882C169.19 147.193 166.9 148.719 161.538 148.719C156.174 148.719 153.884 147.193 150.419 144.882C146.128 142.022 140.788 138.462 130.766 138.462C120.745 138.462 115.405 142.022 111.114 144.882C107.649 147.192 105.36 148.719 99.997 148.719C94.633 148.719 92.3438 147.193 88.8784 144.882C84.5882 142.022 79.248 138.462 69.2273 138.462C59.2061 138.462 53.8668 142.022 49.577 144.882C46.1126 147.193 43.823 148.719 38.4612 148.719C33.0995 148.719 30.8096 147.193 27.3455 144.882C23.0546 142.022 17.7151 138.462 7.69284 138.462C3.4438 138.462 0 141.906 0 146.154C0 150.403 3.4438 153.847 7.69218 153.847C13.0556 153.847 15.3455 155.373 18.8108 157.684C23.1011 160.544 28.44 164.104 38.4609 164.104C48.4822 164.104 53.8214 160.544 58.1113 157.684C61.5757 155.373 63.8652 153.848 69.227 153.848C74.5901 153.848 76.879 155.374 80.3444 157.684C84.6352 160.544 89.9742 164.104 99.9964 164.104C110.017 164.104 115.357 160.544 119.648 157.684C123.112 155.373 125.402 153.847 130.765 153.847C136.129 153.847 138.419 155.373 141.885 157.684C146.176 160.544 151.515 164.103 161.537 164.103C171.558 164.103 176.898 160.544 181.188 157.684C184.654 155.373 186.944 153.847 192.308 153.847C196.556 153.847 200 150.403 200 146.154C200.001 141.906 196.557 138.462 192.308 138.462Z" fill="#FFDB27"/>
</svg>
